{"title":"Sons Of Anarchy s04e09 HDTV XViD AC3 DTRG","uid":6791019,"size":590326159,"categoryP":"video","categoryS":"tv_shows","magnet":"?xt=urn:btih:a21b95dc5029bc253ec26e4f3d665b7b1de21e01&amp;dn=Sons+Of+Anarchy+s04e09+HDTV+XViD+AC3+DTRG&amp;tr=udp%3A%2F%2Ftracker.openbittorrent.com%3A80&amp;tr=udp%3A%2F%2Fopen.demonii.com%3A1337&amp;tr=udp%3A%2F%2Ftracker.coppersurfer.tk%3A6969&amp;tr=udp%3A%2F%2Fexodus.desync.com%3A6969","seeders":1,"leechers":1,"uploader":"SAFCukO09","files":3,"time":1320264911,"description":"ormat : AVI\nFormat/Info : Audio Video Interleave\nFile size : 563 MiB\nDuration : 46mn 13s\nOverall bit rate : 1 703 Kbps\nWriting application : VirtualDubMod 1.5.10.2 (build 2540/release)\nWriting library : VirtualDubMod build 2540/release\n\nVideo\nID : 0\nFormat : MPEG-4 Visual\nFormat profile : Advanced Simple@L5\nFormat settings, BVOP : 2\nFormat settings, QPel : No\nFormat settings, GMC : No warppoints\nFormat settings, Matrix : Default (H.263)\nMuxing mode : Packed bitstream\nCodec ID : XVID\nCodec ID/Hint : XviD\nDuration : 46mn 13s\nBit rate : 1 309 Kbps\nWidth : 624 pixels\nHeight : 352 pixels\nDisplay aspect ratio : 16:9\nFrame rate : 23.976 fps\nColor space : YUV\nChroma subsampling : 4:2:0\nBit depth : 8 bits\nScan type : Progressive\nCompression mode : Lossy\nBits/(Pixel*Frame) : 0.249\nStream size : 433 MiB (77%)\nWriting library : XviD 64\n\nAudio\nID : 1\nFormat : AC-3\nFormat/Info : Audio Coding 3\nMode extension : CM (complete main)\nCodec ID : 2000\nDuration : 46mn 13s\nBit rate mode : Constant\nBit rate : 384 Kbps\nChannel(s) : 6 channels\nChannel positions : Front: L C R, Side: L R, LFE\nSampling rate : 48.0 KHz\nBit depth : 16 bits\nCompression mode : Lossy\nStream size : 127 MiB (23%)\nAlignment : Split accross interleaves\nInterleave, duration : 42 ms (1.00 video frame)\nInterleave, preload duration : 500 ms\n\n\n\n\n\n\n\n\n\n\nSons of Anarchy: Kiss\n\n\nThe Niners have made a new alliance that affects SAMCRO's agenda.\n\n","torrent":{"xt":"urn:btih:a21b95dc5029bc253ec26e4f3d665b7b1de21e01","amp;dn":"Sons+Of+Anarchy+s04e09+HDTV+XViD+AC3+DTRG","amp;tr":["udp%3A%2F%2Ftracker.openbittorrent.com%3A80","udp%3A%2F%2Fopen.demonii.com%3A1337","udp%3A%2F%2Ftracker.coppersurfer.tk%3A6969","udp%3A%2F%2Fexodus.desync.com%3A6969"],"infoHash":"a21b95dc5029bc253ec26e4f3d665b7b1de21e01","infoHashBuffer":{"type":"Buffer","data":[162,27,149,220,80,41,188,37,62,194,110,79,61,102,91,123,29,226,30,1]},"announce":[],"urlList":[]}}